<svg version="1.1" id="Layer_1" xmlns="http://www.w3.org/2000/svg" xmlns:xlink="http://www.w3.org/1999/xlink" x="0px" y="0px"
	 width="100%" viewBox="0 0 1318 659" enable-background="new 0 0 1318 659" xml:space="preserve">
<path fill="#ffffff" opacity="1.000000" stroke="none" 
	d="
M907.000000,660.000000 
	C604.704834,660.000000 302.909607,660.000000 1.057210,660.000000 
	C1.057210,440.399231 1.057210,220.798462 1.057210,1.098847 
	C440.211884,1.098847 879.423828,1.098847 1318.817871,1.098847 
	C1318.817871,220.666550 1318.817871,440.333252 1318.817871,660.000000 
	C1181.798462,660.000000 1044.649170,660.000000 907.000000,660.000000 
M1076.525269,409.113953 
	C1068.891235,422.578888 1066.945190,437.048248 1070.095337,451.980347 
	C1075.934570,479.658386 1100.239380,498.998322 1128.447754,498.999573 
	C1172.096436,499.001495 1215.744995,499.003387 1259.393677,498.994781 
	C1265.952393,498.993500 1265.977661,498.967041 1265.979004,492.411469 
	C1265.987305,451.261810 1266.104248,410.111572 1265.912720,368.962799 
	C1265.852661,356.064026 1263.229370,343.678406 1256.221924,332.466919 
	C1244.647949,313.949524 1227.750610,303.047882 1206.331787,302.322815 
	C1172.051880,301.162415 1137.703857,302.049683 1103.385132,301.943939 
	C1100.258301,301.934296 1099.034424,303.350098 1098.086548,305.953369 
	C1095.989624,311.712555 1093.680176,317.394135 1091.474731,323.114044 
	C1088.760742,330.153076 1086.064209,337.198853 1083.069092,344.999847 
	C1086.049805,344.999847 1088.187988,344.999786 1090.326294,344.999847 
	C1122.479736,345.000671 1154.633057,345.015137 1186.786499,344.991119 
	C1193.434326,344.986145 1199.181885,346.927887 1203.610962,352.124908 
	C1208.229126,357.544067 1208.987549,364.053101 1208.997925,370.786591 
	C1209.010620,378.989807 1209.005371,378.996063 1201.030762,378.997253 
	C1177.873657,379.000671 1154.716553,379.021118 1131.559448,378.992432 
	C1108.007080,378.963287 1089.583130,388.359863 1076.525269,409.113953 
M317.514221,433.891357 
	C315.953430,430.324738 314.392670,426.758118 312.471375,422.367615 
	C315.815338,422.211304 318.072601,422.014923 320.329956,422.013824 
	C360.652863,421.994446 400.975800,421.987549 441.298676,422.018494 
	C444.637451,422.021057 447.453339,422.083557 448.037811,417.513794 
	C450.821838,395.747528 448.745148,374.898132 438.133820,355.206177 
	C420.838867,323.111206 393.721222,305.647034 357.917114,302.227509 
	C335.223572,300.060120 314.077209,306.429810 295.261444,319.313629 
	C277.036743,331.792694 264.239960,348.735687 257.317505,369.744720 
	C252.385818,384.711975 250.748093,400.150604 253.484787,415.819580 
	C257.559296,439.148132 268.066132,458.923523 286.059753,474.596954 
	C302.632965,489.033051 321.923431,497.710663 343.698364,498.737976 
	C367.140137,499.843933 390.674988,499.058716 414.167236,498.862457 
	C416.109192,498.846252 418.633606,497.502594 419.868256,495.959991 
	C425.772827,488.582458 431.352997,480.943817 436.994629,473.357910 
	C440.990417,467.985046 444.900391,462.548370 449.681854,455.998901 
	C446.104431,455.998901 443.993927,455.998901 441.883423,455.998901 
	C411.724548,455.998596 381.565674,456.008759 351.406830,455.975739 
	C349.262085,455.973389 347.081451,455.845734 344.979034,455.449799 
	C332.408905,453.082642 324.449554,444.718506 317.514221,433.891357 
M239.000137,440.500000 
	C239.000549,414.345215 239.040268,388.190277 238.951782,362.035767 
	C238.940643,358.750977 238.564926,355.397186 237.831604,352.195984 
	C230.794739,321.477875 206.584167,303.099609 179.580383,302.304504 
	C140.132294,301.142975 100.624496,302.045929 61.142487,301.940918 
	C57.278416,301.930634 55.946663,303.113953 55.952934,307.072479 
	C56.051670,369.377686 56.054688,431.683197 55.947765,493.988403 
	C55.940830,498.030487 57.398872,499.095581 61.184879,499.056885 
	C76.009987,498.905212 90.837601,499.003082 105.664284,498.997467 
	C112.984230,498.994690 112.996880,498.984131 112.997681,491.652161 
	C113.002823,444.673218 113.045708,397.694153 112.928131,350.715515 
	C112.917618,346.515442 113.905952,344.821320 118.472374,344.906464 
	C132.794312,345.173431 147.126419,345.155243 161.450623,344.958618 
	C173.421539,344.794281 182.307617,355.400330 182.199982,365.722595 
	C181.757095,408.198944 182.079346,450.682770 181.927948,493.163177 
	C181.911621,497.745819 183.290054,499.163910 187.860046,499.090057 
	C203.015961,498.845032 218.180145,498.865753 233.336960,499.080994 
	C237.621124,499.141815 239.151566,497.966064 239.091217,493.475403 
	C238.858475,476.152985 238.998825,458.825562 239.000137,440.500000 
M622.454956,328.926056 
	C628.865662,320.267120 635.276367,311.608215 641.804138,302.791168 
	C640.770691,302.392059 640.465637,302.171661 640.159912,302.170776 
	C620.331909,302.114136 600.503479,302.018311 580.676514,302.148956 
	C579.178467,302.158844 577.245117,303.450012 576.269775,304.724030 
	C569.013916,314.202209 561.981262,323.850739 554.814453,333.397675 
	C548.863770,341.324554 542.825806,349.185852 536.685791,357.261230 
	C535.321472,355.777527 534.210083,354.756897 533.318542,353.571014 
	C521.471436,337.811829 509.518127,322.128937 497.942932,306.171875 
	C495.528198,302.843018 493.009552,301.906250 489.230316,301.942017 
	C474.400238,302.082550 459.567993,301.999023 444.736572,301.998749 
	C440.615417,301.998657 436.494263,301.998718 431.186920,301.998718 
	C433.405670,305.321106 434.905792,307.808990 436.637421,310.123657 
	C458.391663,339.203033 480.146393,368.282318 502.018158,397.273193 
	C503.858948,399.713104 503.936493,401.154083 502.031860,403.671997 
	C482.023041,430.123871 462.172424,456.695435 442.296631,483.247772 
	C438.681305,488.077515 435.149384,492.969696 431.246155,498.286377 
	C432.772064,498.660156 433.373749,498.935577 433.975891,498.936493 
	C453.306427,498.966522 472.637573,499.036682 491.966431,498.858093 
	C493.615936,498.842865 495.762207,497.536316 496.810089,496.166138 
	C505.159241,485.248688 513.263794,474.144653 521.515747,463.152191 
	C526.436157,456.597656 531.487000,450.140991 536.635315,443.437073 
	C549.931946,461.137085 562.869324,478.185089 575.549438,495.422394 
	C577.489624,498.059784 579.433044,499.052094 582.539368,499.037506 
	C600.703308,498.952087 618.867859,499.004303 637.032166,498.980713 
	C638.295044,498.979095 639.557678,498.739746 641.880493,498.502777 
	C638.845642,494.314880 636.329407,490.741302 633.710449,487.244629 
	C612.751953,459.262360 591.799744,431.275238 570.750244,403.361481 
	C569.175537,401.273254 568.954224,399.977051 570.620361,397.776215 
	C587.815430,375.062744 604.883972,352.253510 622.454956,328.926056 
M680.000000,288.486572 
	C679.992920,291.652679 679.868408,294.824158 680.012146,297.983398 
	C680.152405,301.067200 678.740906,302.072296 675.824402,302.015381 
	C670.161011,301.904816 664.481018,301.789154 658.834961,302.126862 
	C656.959290,302.239044 654.538757,303.246948 653.434448,304.672150 
	C644.379333,316.358643 635.562988,328.230499 626.716431,340.077698 
	C625.790588,341.317566 625.138977,342.762146 623.847656,344.999939 
	C626.788513,344.999939 628.738525,344.999878 630.688538,344.999969 
	C645.019592,345.000549 659.355591,345.216827 673.679016,344.886475 
	C678.786255,344.768677 680.146729,346.361145 680.106262,351.371155 
	C679.881653,379.198242 680.142334,407.029297 679.911133,434.856293 
	C679.843689,442.979187 681.083801,450.655914 683.907227,458.232361 
	C692.831604,482.179871 714.141785,497.113403 737.677612,498.759094 
	C754.426514,499.930237 771.323730,498.909912 788.153137,499.054688 
	C791.847656,499.086487 793.098999,497.827209 793.040100,494.146942 
	C792.863953,483.151520 792.855225,472.149353 793.044861,461.154388 
	C793.111145,457.311523 791.931824,455.843353 787.934326,455.930695 
	C777.774231,456.152679 767.593628,455.685730 757.444092,456.080872 
	C746.202820,456.518494 736.666870,446.245636 736.830872,435.765198 
	C737.279358,407.110107 736.978882,378.443390 736.994507,349.781281 
	C736.995300,348.335083 737.179260,346.889008 737.308167,345.000519 
	C739.427307,345.000519 741.232361,345.000641 743.037354,345.000458 
	C757.868347,344.998993 772.700623,344.888702 787.529419,345.067993 
	C791.523682,345.116272 793.162781,344.054138 793.062744,339.769562 
	C792.809998,328.943848 792.817261,318.104675 793.059937,307.278503 
	C793.154785,303.047272 791.599670,301.881042 787.558655,301.929840 
	C772.563232,302.110962 757.562012,301.849274 742.568176,302.086487 
	C738.150879,302.156342 736.857178,300.744507 736.900818,296.385254 
	C737.097534,276.723724 736.891052,257.058289 737.054382,237.396149 
	C737.088257,233.317368 735.864258,231.870361 731.677307,231.924713 
	C716.349060,232.123764 701.013123,232.183701 685.687683,231.895035 
	C680.854736,231.804001 679.872681,233.659592 679.923645,238.000412 
	C680.117310,254.495514 680.000671,270.994263 680.000000,288.486572 
M1061.500000,301.998901 
	C1052.667725,301.999420 1043.831421,302.152405 1035.004883,301.929504 
	C1031.182861,301.832977 1028.782349,302.607117 1027.815430,306.802704 
	C1027.004639,310.321045 1025.313354,313.639160 1023.983643,317.034821 
	C1013.287781,344.349274 1002.613037,371.672089 991.868103,398.967224 
	C988.505188,407.509766 984.947388,415.975555 981.140015,425.307007 
	C979.881592,422.738953 978.981689,421.187927 978.333496,419.537994 
	C963.546692,381.898376 948.747314,344.263519 934.092896,306.572327 
	C932.810852,303.274994 931.163025,301.898773 927.557373,301.936127 
	C912.061340,302.096619 896.562500,301.989502 881.064880,302.024902 
	C879.508423,302.028473 877.952576,302.336182 876.015930,302.543457 
	C876.527710,304.270233 876.768555,305.376007 877.176514,306.416229 
	C887.766235,333.416779 898.390564,360.403687 908.973022,387.407043 
	C923.062622,423.359772 937.079346,459.341278 951.330750,495.229675 
	C951.987610,496.883759 954.616943,498.789917 956.356140,498.818085 
	C973.015869,499.087769 989.682495,499.041321 1006.344666,498.858673 
	C1007.694031,498.843903 1009.715088,497.446564 1010.253479,496.190125 
	C1013.973389,487.508270 1017.436218,478.714233 1020.882568,469.917419 
	C1039.986084,421.154907 1059.061035,372.381195 1078.146729,323.611603 
	C1080.830566,316.753571 1083.518311,309.897125 1086.612061,301.998901 
	C1077.736206,301.998901 1070.118042,301.998901 1061.500000,301.998901 
M543.881897,288.587585 
	C545.667725,288.338684 547.480957,288.212982 549.235291,287.822601 
	C582.641907,280.389069 604.089966,248.731689 599.170776,216.193604 
	C593.762878,180.422928 558.872803,155.775894 523.726562,163.267975 
	C489.825775,170.494598 467.828644,203.287018 474.012695,236.327530 
	C477.074707,252.687607 485.066620,266.105103 498.459503,276.143646 
	C511.681946,286.054443 526.614563,290.074677 543.881897,288.587585 
M862.984192,475.499969 
	C862.983582,419.699371 862.928162,363.898621 863.079163,308.098450 
	C863.092163,303.287964 861.702393,301.806061 856.884033,301.898499 
	C842.231323,302.179688 827.569824,301.992371 812.911743,302.002441 
	C806.027100,302.007172 806.005371,302.022705 806.004211,308.767670 
	C805.996948,350.576477 805.999634,392.385254 806.000183,434.194061 
	C806.000427,454.015778 806.029602,473.837524 805.977722,493.659119 
	C805.969543,496.778290 806.095642,499.099457 810.344666,499.054047 
	C826.499939,498.881378 842.658630,498.921844 858.815002,499.031403 
	C862.213501,499.054413 863.079956,497.547150 863.012390,494.488464 
	C862.880066,488.495026 862.980286,482.496399 862.984192,475.499969 
M862.984131,270.498962 
	C862.980286,259.180603 862.919006,247.861786 863.010925,236.544205 
	C863.035522,233.518707 862.253601,231.946747 858.834656,231.969513 
	C842.523682,232.078186 826.211487,232.048004 809.900085,231.993774 
	C807.194763,231.984772 805.986633,232.972214 805.996643,235.778748 
	C806.055603,252.256607 806.055237,268.734894 805.996887,285.212769 
	C805.987000,288.012665 807.183350,289.013916 809.894409,289.004883 
	C826.205811,288.950653 842.518066,288.919434 858.828918,289.031158 
	C862.237183,289.054535 863.109436,287.525421 863.009583,284.479584 
	C862.867798,280.156769 862.980225,275.825623 862.984131,270.498962 
z"/>
<path fill="#0445A5" opacity="1.000000" stroke="none" 
	d="
M1076.753174,408.825073 
	C1089.583130,388.359863 1108.007080,378.963287 1131.559448,378.992432 
	C1154.716553,379.021118 1177.873657,379.000671 1201.030762,378.997253 
	C1209.005371,378.996063 1209.010620,378.989807 1208.997925,370.786591 
	C1208.987549,364.053101 1208.229126,357.544067 1203.610962,352.124908 
	C1199.181885,346.927887 1193.434326,344.986145 1186.786499,344.991119 
	C1154.633057,345.015137 1122.479736,345.000671 1090.326294,344.999847 
	C1088.187988,344.999786 1086.049805,344.999847 1083.069092,344.999847 
	C1086.064209,337.198853 1088.760742,330.153076 1091.474731,323.114044 
	C1093.680176,317.394135 1095.989624,311.712555 1098.086548,305.953369 
	C1099.034424,303.350098 1100.258301,301.934296 1103.385132,301.943939 
	C1137.703857,302.049683 1172.051880,301.162415 1206.331787,302.322815 
	C1227.750610,303.047882 1244.647949,313.949524 1256.221924,332.466919 
	C1263.229370,343.678406 1265.852661,356.064026 1265.912720,368.962799 
	C1266.104248,410.111572 1265.987305,451.261810 1265.979004,492.411469 
	C1265.977661,498.967041 1265.952393,498.993500 1259.393677,498.994781 
	C1215.744995,499.003387 1172.096436,499.001495 1128.447754,498.999573 
	C1100.239380,498.998322 1075.934570,479.658386 1070.095337,451.980347 
	C1066.945190,437.048248 1068.891235,422.578888 1076.753174,408.825073 
M1179.500000,455.998718 
	C1187.654663,455.996399 1195.814697,455.818909 1203.961670,456.066528 
	C1207.962036,456.188080 1209.166870,454.691010 1209.058228,450.856873 
	C1208.841553,443.207672 1208.775513,435.539093 1209.081177,427.895874 
	C1209.261108,423.397217 1207.875122,421.852631 1203.216797,421.905701 
	C1183.248779,422.133209 1163.276733,421.978363 1143.306152,422.011963 
	C1132.907837,422.029449 1126.522705,428.868591 1125.827637,438.916412 
	C1125.223877,447.645508 1133.429810,456.451508 1143.056030,456.099152 
	C1154.856079,455.667175 1166.684082,455.997803 1179.500000,455.998718 
z"/>
<path fill="#0445A5" opacity="1.000000" stroke="none" 
	d="
M317.744995,434.180664 
	C324.449554,444.718506 332.408905,453.082642 344.979034,455.449799 
	C347.081451,455.845734 349.262085,455.973389 351.406830,455.975739 
	C381.565674,456.008759 411.724548,455.998596 441.883423,455.998901 
	C443.993927,455.998901 446.104431,455.998901 449.681854,455.998901 
	C444.900391,462.548370 440.990417,467.985046 436.994629,473.357910 
	C431.352997,480.943817 425.772827,488.582458 419.868256,495.959991 
	C418.633606,497.502594 416.109192,498.846252 414.167236,498.862457 
	C390.674988,499.058716 367.140137,499.843933 343.698364,498.737976 
	C321.923431,497.710663 302.632965,489.033051 286.059753,474.596954 
	C268.066132,458.923523 257.559296,439.148132 253.484787,415.819580 
	C250.748093,400.150604 252.385818,384.711975 257.317505,369.744720 
	C264.239960,348.735687 277.036743,331.792694 295.261444,319.313629 
	C314.077209,306.429810 335.223572,300.060120 357.917114,302.227509 
	C393.721222,305.647034 420.838867,323.111206 438.133820,355.206177 
	C448.745148,374.898132 450.821838,395.747528 448.037811,417.513794 
	C447.453339,422.083557 444.637451,422.021057 441.298676,422.018494 
	C400.975800,421.987549 360.652863,421.994446 320.329956,422.013824 
	C318.072601,422.014923 315.815338,422.211304 312.471375,422.367615 
	C314.392670,426.758118 315.953430,430.324738 317.744995,434.180664 
M365.499969,378.998779 
	C373.089203,378.998779 380.678467,378.998779 388.401337,378.998779 
	C384.960541,361.477386 367.652283,343.849701 349.023712,344.978119 
	C333.616638,345.911438 314.385529,363.859772 313.656677,378.998779 
	C330.620544,378.998779 347.560272,378.998779 365.499969,378.998779 
z"/>
<path fill="#0445A5" opacity="1.000000" stroke="none" 
	d="
M239.000137,441.000000 
	C238.998825,458.825562 238.858475,476.152985 239.091217,493.475403 
	C239.151566,497.966064 237.621124,499.141815 233.336960,499.080994 
	C218.180145,498.865753 203.015961,498.845032 187.860046,499.090057 
	C183.290054,499.163910 181.911621,497.745819 181.927948,493.163177 
	C182.079346,450.682770 181.757095,408.198944 182.199982,365.722595 
	C182.307617,355.400330 173.421539,344.794281 161.450623,344.958618 
	C147.126419,345.155243 132.794312,345.173431 118.472374,344.906464 
	C113.905952,344.821320 112.917618,346.515442 112.928131,350.715515 
	C113.045708,397.694153 113.002823,444.673218 112.997681,491.652161 
	C112.996880,498.984131 112.984230,498.994690 105.664284,498.997467 
	C90.837601,499.003082 76.009987,498.905212 61.184879,499.056885 
	C57.398872,499.095581 55.940830,498.030487 55.947765,493.988403 
	C56.054688,431.683197 56.051670,369.377686 55.952934,307.072479 
	C55.946663,303.113953 57.278416,301.930634 61.142487,301.940918 
	C100.624496,302.045929 140.132294,301.142975 179.580383,302.304504 
	C206.584167,303.099609 230.794739,321.477875 237.831604,352.195984 
	C238.564926,355.397186 238.940643,358.750977 238.951782,362.035767 
	C239.040268,388.190277 239.000549,414.345215 239.000137,441.000000 
z"/>
<path fill="#0445A5" opacity="1.000000" stroke="none" 
	d="
M622.221313,329.198486 
	C604.883972,352.253510 587.815430,375.062744 570.620361,397.776215 
	C568.954224,399.977051 569.175537,401.273254 570.750244,403.361481 
	C591.799744,431.275238 612.751953,459.262360 633.710449,487.244629 
	C636.329407,490.741302 638.845642,494.314880 641.880493,498.502777 
	C639.557678,498.739746 638.295044,498.979095 637.032166,498.980713 
	C618.867859,499.004303 600.703308,498.952087 582.539368,499.037506 
	C579.433044,499.052094 577.489624,498.059784 575.549438,495.422394 
	C562.869324,478.185089 549.931946,461.137085 536.635315,443.437073 
	C531.487000,450.140991 526.436157,456.597656 521.515747,463.152191 
	C513.263794,474.144653 505.159241,485.248688 496.810089,496.166138 
	C495.762207,497.536316 493.615936,498.842865 491.966431,498.858093 
	C472.637573,499.036682 453.306427,498.966522 433.975891,498.936493 
	C433.373749,498.935577 432.772064,498.660156 431.246155,498.286377 
	C435.149384,492.969696 438.681305,488.077515 442.296631,483.247772 
	C462.172424,456.695435 482.023041,430.123871 502.031860,403.671997 
	C503.936493,401.154083 503.858948,399.713104 502.018158,397.273193 
	C480.146393,368.282318 458.391663,339.203033 436.637421,310.123657 
	C434.905792,307.808990 433.405670,305.321106 431.186920,301.998718 
	C436.494263,301.998718 440.615417,301.998657 444.736572,301.998749 
	C459.567993,301.999023 474.400238,302.082550 489.230316,301.942017 
	C493.009552,301.906250 495.528198,302.843018 497.942932,306.171875 
	C509.518127,322.128937 521.471436,337.811829 533.318542,353.571014 
	C534.210083,354.756897 535.321472,355.777527 536.685791,357.261230 
	C542.825806,349.185852 548.863770,341.324554 554.814453,333.397675 
	C561.981262,323.850739 569.013916,314.202209 576.269775,304.724030 
	C577.245117,303.450012 579.178467,302.158844 580.676514,302.148956 
	C600.503479,302.018311 620.331909,302.114136 640.159912,302.170776 
	C640.465637,302.171661 640.770691,302.392059 641.804138,302.791168 
	C635.276367,311.608215 628.865662,320.267120 622.221313,329.198486 
z"/>
<path fill="#0445A5" opacity="1.000000" stroke="none" 
	d="
M680.000000,287.989105 
	C680.000671,270.994263 680.117310,254.495514 679.923645,238.000412 
	C679.872681,233.659592 680.854736,231.804001 685.687683,231.895035 
	C701.013123,232.183701 716.349060,232.123764 731.677307,231.924713 
	C735.864258,231.870361 737.088257,233.317368 737.054382,237.396149 
	C736.891052,257.058289 737.097534,276.723724 736.900818,296.385254 
	C736.857178,300.744507 738.150879,302.156342 742.568176,302.086487 
	C757.562012,301.849274 772.563232,302.110962 787.558655,301.929840 
	C791.599670,301.881042 793.154785,303.047272 793.059937,307.278503 
	C792.817261,318.104675 792.809998,328.943848 793.062744,339.769562 
	C793.162781,344.054138 791.523682,345.116272 787.529419,345.067993 
	C772.700623,344.888702 757.868347,344.998993 743.037354,345.000458 
	C741.232361,345.000641 739.427307,345.000519 737.308167,345.000519 
	C737.179260,346.889008 736.995300,348.335083 736.994507,349.781281 
	C736.978882,378.443390 737.279358,407.110107 736.830872,435.765198 
	C736.666870,446.245636 746.202820,456.518494 757.444092,456.080872 
	C767.593628,455.685730 777.774231,456.152679 787.934326,455.930695 
	C791.931824,455.843353 793.111145,457.311523 793.044861,461.154388 
	C792.855225,472.149353 792.863953,483.151520 793.040100,494.146942 
	C793.098999,497.827209 791.847656,499.086487 788.153137,499.054688 
	C771.323730,498.909912 754.426514,499.930237 737.677612,498.759094 
	C714.141785,497.113403 692.831604,482.179871 683.907227,458.232361 
	C681.083801,450.655914 679.843689,442.979187 679.911133,434.856293 
	C680.142334,407.029297 679.881653,379.198242 680.106262,351.371155 
	C680.146729,346.361145 678.786255,344.768677 673.679016,344.886475 
	C659.355591,345.216827 645.019592,345.000549 630.688538,344.999969 
	C628.738525,344.999878 626.788513,344.999939 623.847656,344.999939 
	C625.138977,342.762146 625.790588,341.317566 626.716431,340.077698 
	C635.562988,328.230499 644.379333,316.358643 653.434448,304.672150 
	C654.538757,303.246948 656.959290,302.239044 658.834961,302.126862 
	C664.481018,301.789154 670.161011,301.904816 675.824402,302.015381 
	C678.740906,302.072296 680.152405,301.067200 680.012146,297.983398 
	C679.868408,294.824158 679.992920,291.652679 680.000000,287.989105 
z"/>
<path fill="#0445A5" opacity="1.000000" stroke="none" 
	d="
M1062.000000,301.998901 
	C1070.118042,301.998901 1077.736206,301.998901 1086.612061,301.998901 
	C1083.518311,309.897125 1080.830566,316.753571 1078.146729,323.611603 
	C1059.061035,372.381195 1039.986084,421.154907 1020.882568,469.917419 
	C1017.436218,478.714233 1013.973389,487.508270 1010.253479,496.190125 
	C1009.715088,497.446564 1007.694031,498.843903 1006.344666,498.858673 
	C989.682495,499.041321 973.015869,499.087769 956.356140,498.818085 
	C954.616943,498.789917 951.987610,496.883759 951.330750,495.229675 
	C937.079346,459.341278 923.062622,423.359772 908.973022,387.407043 
	C898.390564,360.403687 887.766235,333.416779 877.176514,306.416229 
	C876.768555,305.376007 876.527710,304.270233 876.015930,302.543457 
	C877.952576,302.336182 879.508423,302.028473 881.064880,302.024902 
	C896.562500,301.989502 912.061340,302.096619 927.557373,301.936127 
	C931.163025,301.898773 932.810852,303.274994 934.092896,306.572327 
	C948.747314,344.263519 963.546692,381.898376 978.333496,419.537994 
	C978.981689,421.187927 979.881592,422.738953 981.140015,425.307007 
	C984.947388,415.975555 988.505188,407.509766 991.868103,398.967224 
	C1002.613037,371.672089 1013.287781,344.349274 1023.983643,317.034821 
	C1025.313354,313.639160 1027.004639,310.321045 1027.815430,306.802704 
	C1028.782349,302.607117 1031.182861,301.832977 1035.004883,301.929504 
	C1043.831421,302.152405 1052.667725,301.999420 1062.000000,301.998901 
z"/>
<path fill="#F8B400" opacity="1.000000" stroke="none" 
	d="
M543.452026,288.744751 
	C526.614563,290.074677 511.681946,286.054443 498.459503,276.143646 
	C485.066620,266.105103 477.074707,252.687607 474.012695,236.327530 
	C467.828644,203.287018 489.825775,170.494598 523.726562,163.267975 
	C558.872803,155.775894 593.762878,180.422928 599.170776,216.193604 
	C604.089966,248.731689 582.641907,280.389069 549.235291,287.822601 
	C547.480957,288.212982 545.667725,288.338684 543.452026,288.744751 
z"/>
<path fill="#0445A5" opacity="1.000000" stroke="none" 
	d="
M862.984253,475.999939 
	C862.980286,482.496399 862.880066,488.495026 863.012390,494.488464 
	C863.079956,497.547150 862.213501,499.054413 858.815002,499.031403 
	C842.658630,498.921844 826.499939,498.881378 810.344666,499.054047 
	C806.095642,499.099457 805.969543,496.778290 805.977722,493.659119 
	C806.029602,473.837524 806.000427,454.015778 806.000183,434.194061 
	C805.999634,392.385254 805.996948,350.576477 806.004211,308.767670 
	C806.005371,302.022705 806.027100,302.007172 812.911743,302.002441 
	C827.569824,301.992371 842.231323,302.179688 856.884033,301.898499 
	C861.702393,301.806061 863.092163,303.287964 863.079163,308.098450 
	C862.928162,363.898621 862.983582,419.699371 862.984253,475.999939 
z"/>
<path fill="#0445A5" opacity="1.000000" stroke="none" 
	d="
M862.984131,270.998474 
	C862.980225,275.825623 862.867798,280.156769 863.009583,284.479584 
	C863.109436,287.525421 862.237183,289.054535 858.828918,289.031158 
	C842.518066,288.919434 826.205811,288.950653 809.894409,289.004883 
	C807.183350,289.013916 805.987000,288.012665 805.996887,285.212769 
	C806.055237,268.734894 806.055603,252.256607 805.996643,235.778748 
	C805.986633,232.972214 807.194763,231.984772 809.900085,231.993774 
	C826.211487,232.048004 842.523682,232.078186 858.834656,231.969513 
	C862.253601,231.946747 863.035522,233.518707 863.010925,236.544205 
	C862.919006,247.861786 862.980286,259.180603 862.984131,270.998474 
z"/>
<path fill="#fff" opacity="1.000000" stroke="none" 
	d="
M1179.000000,455.998718 
	C1166.684082,455.997803 1154.856079,455.667175 1143.056030,456.099152 
	C1133.429810,456.451508 1125.223877,447.645508 1125.827637,438.916412 
	C1126.522705,428.868591 1132.907837,422.029449 1143.306152,422.011963 
	C1163.276733,421.978363 1183.248779,422.133209 1203.216797,421.905701 
	C1207.875122,421.852631 1209.261108,423.397217 1209.081177,427.895874 
	C1208.775513,435.539093 1208.841553,443.207672 1209.058228,450.856873 
	C1209.166870,454.691010 1207.962036,456.188080 1203.961670,456.066528 
	C1195.814697,455.818909 1187.654663,455.996399 1179.000000,455.998718 
z"/>
<path fill="#fff" opacity="1.000000" stroke="none" 
	d="
M365.000000,378.998779 
	C347.560272,378.998779 330.620544,378.998779 313.656677,378.998779 
	C314.385529,363.859772 333.616638,345.911438 349.023712,344.978119 
	C367.652283,343.849701 384.960541,361.477386 388.401337,378.998779 
	C380.678467,378.998779 373.089203,378.998779 365.000000,378.998779 
z"/>
</svg>