<?xml version="1.0" standalone="no"?>
<!DOCTYPE svg PUBLIC "-//W3C//DTD SVG 20010904//EN"
 "http://www.w3.org/TR/2001/REC-SVG-20010904/DTD/svg10.dtd">
<svg version="1.0" xmlns="http://www.w3.org/2000/svg"
 width="657.000000pt" height="221.000000pt" viewBox="0 0 657.000000 221.000000"
 preserveAspectRatio="xMidYMid meet">

<g transform="translate(0.000000,221.000000) scale(0.100000,-0.100000)"
fill="#fff" stroke="none">
<path d="M965 2199 c-365 -46 -696 -286 -855 -621 -261 -549 -26 -1207 522
-1468 549 -261 1207 -26 1468 522 67 142 111 333 109 473 l-1 50 -18 -80 c-24
-105 -43 -154 -90 -243 -121 -223 -307 -375 -560 -457 -114 -37 -323 -46 -451
-20 -364 73 -661 370 -734 734 -22 104 -16 323 10 421 20 77 90 230 134 294
134 194 353 339 587 390 l69 14 -60 0 c-33 0 -91 -4 -130 -9z"/>
<path d="M1545 2088 c-11 -6 -100 -89 -197 -186 -164 -163 -180 -176 -214
-176 -30 0 -43 7 -77 46 -52 58 -73 68 -135 68 -87 0 -162 -72 -162 -157 0
-84 41 -141 120 -164 64 -19 108 -4 167 57 49 50 56 54 98 54 25 0 58 6 73 14
43 23 416 402 408 415 -15 23 -61 40 -81 29z m-572 -366 c22 -19 22 -70 0 -94
-20 -22 -76 -24 -97 -2 -69 68 24 160 97 96z"/>
<path d="M1460 1514 c-217 -217 -404 -400 -415 -407 -11 -6 -52 -11 -92 -11
-77 -1 -106 -15 -147 -70 -30 -39 -30 -143 0 -182 33 -45 70 -67 121 -71 63
-7 112 14 149 63 25 32 29 47 30 103 1 36 2 73 3 81 0 8 184 198 408 422 l407
408 -29 30 c-16 16 -31 30 -34 30 -4 0 -184 -178 -401 -396z m-468 -531 c22
-20 24 -76 2 -97 -20 -21 -73 -20 -96 1 -22 20 -23 70 -1 95 20 22 70 23 95 1z"/>
<path d="M2610 1495 l0 -335 75 0 75 0 0 125 0 125 84 0 c47 0 97 5 113 11 41
15 91 67 104 108 19 56 14 152 -10 199 -42 82 -99 102 -298 102 l-143 0 0
-335z m269 214 c37 -13 51 -41 51 -100 0 -62 -33 -89 -110 -89 l-60 0 0 100 0
100 44 0 c23 0 58 -5 75 -11z"/>
<path d="M3237 1583 c-37 -136 -78 -287 -91 -335 l-24 -88 72 0 73 0 18 80 18
81 96 -3 96 -3 20 -77 19 -78 73 0 c52 0 73 4 73 13 -1 6 -40 156 -88 332
l-87 320 -101 3 -101 3 -66 -248z m198 -5 c15 -62 30 -119 33 -125 3 -10 -15
-13 -68 -13 -63 0 -71 2 -66 18 3 9 17 65 32 125 14 59 30 107 33 107 4 0 20
-51 36 -112z"/>
<path d="M3760 1495 l0 -335 70 0 70 0 0 100 c0 95 2 102 30 141 l29 41 26
-49 c15 -26 49 -90 76 -140 l50 -93 79 0 78 0 -80 148 c-44 81 -91 168 -105
194 l-25 46 96 135 c53 74 96 137 96 141 0 3 -34 6 -75 6 l-74 0 -98 -142 -98
-143 -3 143 -3 142 -69 0 -70 0 0 -335z"/>
<path d="M4340 1780 l0 -50 70 0 70 0 0 -235 0 -235 -70 0 -70 0 0 -50 0 -50
215 0 215 0 0 50 0 49 -72 3 -73 3 0 230 0 230 73 3 72 3 0 49 0 50 -215 0
-215 0 0 -50z"/>
<path d="M4870 1770 l0 -60 95 0 95 0 0 -275 0 -275 70 0 70 0 0 275 0 275 95
0 95 0 0 60 0 60 -260 0 -260 0 0 -60z"/>
<path d="M1744 1308 l-312 -313 -6 -50 c-5 -41 -12 -56 -43 -84 -60 -55 -73
-80 -73 -142 0 -71 28 -115 93 -148 69 -34 127 -24 183 33 76 76 68 169 -21
252 -76 71 -84 58 245 389 160 160 290 299 290 308 0 19 -28 67 -39 67 -3 0
-146 -141 -317 -312z m-216 -545 c6 -9 12 -31 12 -49 0 -63 -80 -87 -120 -37
-25 32 -20 69 13 96 25 22 75 16 95 -10z"/>
<path d="M2750 991 c-87 -27 -140 -85 -148 -161 -13 -136 47 -203 207 -230 84
-14 121 -41 121 -87 0 -101 -159 -120 -256 -32 -20 19 -21 18 -62 -24 l-42
-43 27 -26 c95 -92 307 -102 404 -21 93 78 90 254 -5 313 -18 11 -75 29 -127
39 -100 21 -129 40 -129 88 0 40 18 62 59 73 57 15 138 -5 170 -44 10 -12 18
-8 54 31 l42 45 -33 28 c-61 50 -200 76 -282 51z"/>
<path d="M3886 985 c-58 -21 -88 -46 -113 -95 -38 -73 -27 -174 24 -223 36
-34 83 -53 166 -67 82 -15 117 -39 117 -84 0 -98 -131 -124 -239 -46 l-39 28
-38 -39 c-44 -45 -42 -57 16 -97 74 -50 192 -65 288 -37 98 29 152 101 152
201 0 115 -49 162 -200 194 -101 21 -130 40 -130 86 0 12 11 35 24 51 21 24
31 27 78 27 56 -1 88 -13 123 -45 21 -18 22 -18 60 28 l39 46 -35 29 c-64 54
-205 75 -293 43z"/>
<path d="M6188 985 c-107 -35 -158 -136 -127 -250 22 -78 93 -121 232 -140 61
-8 87 -33 87 -83 0 -43 -27 -75 -72 -86 -41 -9 -118 11 -165 44 l-42 30 -37
-45 c-36 -44 -36 -46 -19 -65 10 -11 43 -32 74 -48 49 -24 67 -27 151 -27 86
0 100 3 148 29 29 17 62 44 73 63 61 98 39 225 -47 275 -17 10 -73 27 -125 38
-51 11 -100 27 -108 35 -23 22 -19 82 7 107 33 33 115 30 178 -7 l47 -28 38
44 38 44 -22 18 c-71 59 -213 82 -309 52z"/>
<path d="M3225 778 l105 -213 0 -122 0 -123 70 0 70 0 0 114 0 113 105 217
c58 120 105 219 105 222 0 2 -33 4 -73 4 l-73 0 -41 -92 c-23 -51 -49 -113
-59 -138 -9 -25 -20 -49 -24 -53 -4 -4 -22 29 -40 74 -18 46 -46 111 -62 146
l-30 63 -78 0 -79 0 104 -212z"/>
<path d="M4290 930 l0 -60 95 0 95 0 0 -275 0 -275 70 0 70 0 0 275 0 275 100
0 100 0 0 60 0 60 -265 0 -265 0 0 -60z"/>
<path d="M4920 655 l0 -335 215 0 216 0 -3 58 -3 57 -142 3 -143 3 0 79 0 80
140 0 141 0 -3 58 -3 57 -137 3 -138 3 0 74 0 74 143 3 142 3 3 58 3 57 -216
0 -215 0 0 -335z"/>
<path d="M5460 655 l0 -335 61 0 62 0 -5 246 c-3 135 -2 242 2 237 4 -4 33
-80 65 -168 32 -88 59 -161 60 -163 1 -1 28 68 59 154 31 87 61 164 66 173 6
10 7 -78 3 -231 l-6 -248 61 0 62 0 0 335 0 336 -76 -3 -77 -3 -40 -112 c-22
-62 -42 -111 -46 -109 -4 3 -24 54 -46 115 l-40 111 -82 0 -83 0 0 -335z"/>
</g>
</svg>
